<svg width="34" height="34" viewBox="0 0 34 34" fill="none" xmlns="http://www.w3.org/2000/svg">
<path d="M13.4583 14.875C13.4583 14.3114 13.6822 13.7709 14.0807 13.3724C14.4792 12.9739 15.0197 12.75 15.5833 12.75H18.4167C18.9802 12.75 19.5207 12.9739 19.9193 13.3724C20.3178 13.7709 20.5417 14.3114 20.5417 14.875V27.625C20.5417 28.1886 20.3178 28.7291 19.9193 29.1276C19.5207 29.5261 18.9802 29.75 18.4167 29.75H15.5833C15.0197 29.75 14.4792 29.5261 14.0807 29.1276C13.6822 28.7291 13.4583 28.1886 13.4583 27.625V14.875Z" fill="#D8E3F3"/>
<path d="M4.25 23.375C4.25 22.8114 4.47388 22.2709 4.8724 21.8724C5.27091 21.4739 5.81142 21.25 6.375 21.25H9.20833C9.77192 21.25 10.3124 21.4739 10.7109 21.8724C11.1095 22.2709 11.3333 22.8114 11.3333 23.375V27.625C11.3333 28.1886 11.1095 28.7291 10.7109 29.1276C10.3124 29.5261 9.77192 29.75 9.20833 29.75H6.375C5.81142 29.75 5.27091 29.5261 4.8724 29.1276C4.47388 28.7291 4.25 28.1886 4.25 27.625V23.375Z" fill="#D8E3F3"/>
<path fill-rule="evenodd" clip-rule="evenodd" d="M22.6667 6.375C22.6667 5.81141 22.8906 5.27091 23.2891 4.8724C23.6876 4.47388 24.2281 4.25 24.7917 4.25H27.625C28.1886 4.25 28.7291 4.47388 29.1276 4.8724C29.5261 5.27091 29.75 5.81141 29.75 6.375V27.625C29.75 28.1886 29.5261 28.7291 29.1276 29.1276C28.7291 29.5261 28.1886 29.75 27.625 29.75H24.7917C24.2281 29.75 23.6876 29.5261 23.2891 29.1276C22.8906 28.7291 22.6667 28.1886 22.6667 27.625V6.375ZM24.7917 5.66667C24.6038 5.66667 24.4236 5.74129 24.2908 5.87413C24.158 6.00697 24.0833 6.18714 24.0833 6.375V27.625C24.0833 27.8129 24.158 27.993 24.2908 28.1259C24.4236 28.2587 24.6038 28.3333 24.7917 28.3333H27.625C27.8129 28.3333 27.993 28.2587 28.1259 28.1259C28.2587 27.993 28.3333 27.8129 28.3333 27.625V6.375C28.3333 6.18714 28.2587 6.00697 28.1259 5.87413C27.993 5.74129 27.8129 5.66667 27.625 5.66667H24.7917Z" fill="#D8E3F3"/>
</svg>
